<?xml version="1.0" encoding="UTF-8" standalone="no"?>
<svg width="30px" height="25px" version="1.1" viewBox="0 0 150 80" xmlns="http://www.w3.org/2000/svg">
<g fill="#f7a41d">
<path d="m0,-0.08899l0,80l19,0l6,-10l12,-10l-17,0l0,-40l15,0l0,-20l-35,0zm40,0l0,20l62,0l0,-20l-62,0zm91,0l-6,10l-12,10l17,0l0,40l-15,0l0,20l35,0l0,-80l-19,0zm-83,60l0,20l62,0l0,-20l-62,0z" shape-rendering="crispEdges"></path>
<path d="m37,59.91101l-18,20l0,-15l18,-5z"></path>
<path d="m113,19.91101l18,-20l0,15l-18,5z"></path>
<path d="m96.98,0.54101l36.28,-10.4l-80.29,89.17l-36.28,10.4l80.29,-89.17z"></path>
</g>
</svg>
